# xmcd
#
# Track frame offsets:
#	150
#	14088
#	27728
#	39452
#	54732
#	67062
#	80445
#	93323
#	107478
#	120246
#	132517
#	147654
#
# Disc length: 2137 seconds
#
# Revision: 1
# Processed by: cddbd v1.5PL3 Copyright (c) Steve Scherf et al.
# Submitted via: audiograbber 1.83.01
#
DISCID=ae08570c
DTITLE=Prohibido - Puros Corridos
DYEAR=1995
DGENRE=Latin
TTITLE0=Escuadras Del Sur (Banda Machos)
TTITLE1=El Hijo Desobediente (Banda Toro)
TTITLE2=Las Tres Tumbas (Banda R-15)
TTITLE3=El Corrido De Los Perez (Banda Vallarta Show)
TTITLE4=Lamberto Quintero (Banda Clave Azul)
TTITLE5=Veinte Años Despues (Banda Pequeños Musicalz)
TTITLE6=Un Adios A colosio(Banda Rayo
TTITLE7=Traficantes Michacanos (Banda Machos)
TTITLE8=Cruz De Semento (Banda R-15)
TTITLE9=Domingo Corrales (Banda Vallarta Show)
TTITLE10=La Camioneta Gris (Banda Clave Azul)
TTITLE11=Clave Privada (Banda Pequeños Musical)
EXTD=
EXTT0=
EXTT1=
EXTT2=
EXTT3=
EXTT4=
EXTT5=
EXTT6=
EXTT7=
EXTT8=
EXTT9=
EXTT10=
EXTT11=
PLAYORDER=
